solid OpenSCAD_Model
  facet normal 1 -0 0
    outer loop
      vertex 1.425 0 0.799999
      vertex 1.425 4.5 0.599999
      vertex 1.425 4.5 0.799999
    endloop
  endfacet
  facet normal 1 0 0
    outer loop
      vertex 1.425 4.5 0.599999
      vertex 1.425 0 0.799999
      vertex 1.425 0 0.599999
    endloop
  endfacet
  facet normal -1 0 0
    outer loop
      vertex 1.825 0 0.599999
      vertex 1.825 4.5 0.799999
      vertex 1.825 4.5 0.599999
    endloop
  endfacet
  facet normal -1 -0 0
    outer loop
      vertex 1.825 4.5 0.799999
      vertex 1.825 0 0.599999
      vertex 1.825 0 0.799999
    endloop
  endfacet
  facet normal 0 -1 0
    outer loop
      vertex 7.875 4.5 2.6
      vertex 8.1 4.5 3
      vertex 7.875 4.5 3
    endloop
  endfacet
  facet normal 0 -1 -0
    outer loop
      vertex 8.1 4.5 3
      vertex 7.875 4.5 2.6
      vertex 8.1 4.5 2.6
    endloop
  endfacet
  facet normal 0 -1 0
    outer loop
      vertex 1 4.5 2.6
      vertex 4.475 4.5 3
      vertex 1 4.5 3
    endloop
  endfacet
  facet normal 0 -1 -0
    outer loop
      vertex 4.475 4.5 3
      vertex 1 4.5 2.6
      vertex 4.475 4.5 2.6
    endloop
  endfacet
  facet normal 0 -1 0
    outer loop
      vertex 4.025 4.5 0.599999
      vertex 4.425 4.5 0.799999
      vertex 4.025 4.5 0.799999
    endloop
  endfacet
  facet normal 0 -1 -0
    outer loop
      vertex 4.425 4.5 0.799999
      vertex 4.025 4.5 0.599999
      vertex 4.425 4.5 0.599999
    endloop
  endfacet
  facet normal 0 -1 0
    outer loop
      vertex 3.375 4.5 0.599999
      vertex 3.775 4.5 0.799999
      vertex 3.375 4.5 0.799999
    endloop
  endfacet
  facet normal 0 -1 -0
    outer loop
      vertex 3.775 4.5 0.799999
      vertex 3.375 4.5 0.599999
      vertex 3.775 4.5 0.599999
    endloop
  endfacet
  facet normal 0 -1 0
    outer loop
      vertex 2.725 4.5 0.599999
      vertex 3.125 4.5 0.799999
      vertex 2.725 4.5 0.799999
    endloop
  endfacet
  facet normal 0 -1 -0
    outer loop
      vertex 3.125 4.5 0.799999
      vertex 2.725 4.5 0.599999
      vertex 3.125 4.5 0.599999
    endloop
  endfacet
  facet normal 0 -1 0
    outer loop
      vertex 2.075 4.5 0.599999
      vertex 2.475 4.5 0.799999
      vertex 2.075 4.5 0.799999
    endloop
  endfacet
  facet normal 0 -1 -0
    outer loop
      vertex 2.475 4.5 0.799999
      vertex 2.075 4.5 0.599999
      vertex 2.475 4.5 0.599999
    endloop
  endfacet
  facet normal 0 -1 0
    outer loop
      vertex 1.425 4.5 0.599999
      vertex 1.825 4.5 0.799999
      vertex 1.425 4.5 0.799999
    endloop
  endfacet
  facet normal 0 -1 -0
    outer loop
      vertex 1.825 4.5 0.799999
      vertex 1.425 4.5 0.599999
      vertex 1.825 4.5 0.599999
    endloop
  endfacet
  facet normal 0 -1 0
    outer loop
      vertex 2.475 4.5 0.799999
      vertex 1 4.5 2.6
      vertex 1 4.5 1.8
    endloop
  endfacet
  facet normal 0 -1 0
    outer loop
      vertex 1.425 4.5 0.799999
      vertex 1 4.5 1.8
      vertex 1 4.5 0.799999
    endloop
  endfacet
  facet normal 0 -1 0
    outer loop
      vertex 1.825 4.5 0.799999
      vertex 1 4.5 1.8
      vertex 1.425 4.5 0.799999
    endloop
  endfacet
  facet normal 0 -1 0
    outer loop
      vertex 2.075 4.5 0.799999
      vertex 1 4.5 1.8
      vertex 1.825 4.5 0.799999
    endloop
  endfacet
  facet normal 0 -1 0
    outer loop
      vertex 2.475 4.5 0.799999
      vertex 1 4.5 1.8
      vertex 2.075 4.5 0.799999
    endloop
  endfacet
  facet normal 0 -1 0
    outer loop
      vertex 1 4.5 2.6
      vertex 2.475 4.5 0.799999
      vertex 2.725 4.5 0.799999
    endloop
  endfacet
  facet normal 0 -1 0
    outer loop
      vertex 1 4.5 2.6
      vertex 2.725 4.5 0.799999
      vertex 4.475 4.5 2.6
    endloop
  endfacet
  facet normal 0 -1 0
    outer loop
      vertex 3.125 4.5 0.799999
      vertex 4.475 4.5 2.6
      vertex 2.725 4.5 0.799999
    endloop
  endfacet
  facet normal 0 -1 0
    outer loop
      vertex 3.375 4.5 0.799999
      vertex 4.475 4.5 2.6
      vertex 3.125 4.5 0.799999
    endloop
  endfacet
  facet normal 0 -1 0
    outer loop
      vertex 3.775 4.5 0.799999
      vertex 4.475 4.5 2.6
      vertex 3.375 4.5 0.799999
    endloop
  endfacet
  facet normal 0 -1 0
    outer loop
      vertex 4.025 4.5 0.799999
      vertex 4.475 4.5 2.6
      vertex 3.775 4.5 0.799999
    endloop
  endfacet
  facet normal 0 -1 0
    outer loop
      vertex 4.425 4.5 0.799999
      vertex 4.475 4.5 2.6
      vertex 4.025 4.5 0.799999
    endloop
  endfacet
  facet normal 0 -1 -0
    outer loop
      vertex 4.475 4.5 2.6
      vertex 4.425 4.5 0.799999
      vertex 4.475 4.5 0.799999
    endloop
  endfacet
  facet normal 0 -1 0
    outer loop
      vertex 7.875 4.5 2.6
      vertex 8.1 4.5 1.8
      vertex 8.1 4.5 2.6
    endloop
  endfacet
  facet normal 0 -1 0
    outer loop
      vertex 7.875 4.5 0.799999
      vertex 8.1 4.5 1.8
      vertex 7.875 4.5 2.6
    endloop
  endfacet
  facet normal 0 -1 -0
    outer loop
      vertex 8.1 4.5 1.8
      vertex 7.875 4.5 0.799999
      vertex 8.1 4.5 0.799999
    endloop
  endfacet
  facet normal -0 0 1
    outer loop
      vertex 1.425 4.5 0.599999
      vertex 1.825 0 0.599999
      vertex 1.825 4.5 0.599999
    endloop
  endfacet
  facet normal 0 0 1
    outer loop
      vertex 1.825 0 0.599999
      vertex 1.425 4.5 0.599999
      vertex 1.425 0 0.599999
    endloop
  endfacet
  facet normal 0 -1 0
    outer loop
      vertex 0 0 1.8
      vertex 1 0 0.799999
      vertex 1 0 1.8
    endloop
  endfacet
  facet normal 0 -1 0
    outer loop
      vertex 1 0 0.799999
      vertex 1.425 0 0.599999
      vertex 1.425 0 0.799999
    endloop
  endfacet
  facet normal 0 -1 0
    outer loop
      vertex 0 0 0
      vertex 1.825 0 0.599999
      vertex 1.425 0 0.599999
    endloop
  endfacet
  facet normal 0 -1 -0
    outer loop
      vertex 1.825 0 0.599999
      vertex 0 0 0
      vertex 2.075 0 0.599999
    endloop
  endfacet
  facet normal 0 -1 -0
    outer loop
      vertex 2.075 0 0.599999
      vertex 0 0 0
      vertex 2.475 0 0.599999
    endloop
  endfacet
  facet normal 0 -1 -0
    outer loop
      vertex 2.475 0 0.599999
      vertex 0 0 0
      vertex 2.725 0 0.599999
    endloop
  endfacet
  facet normal 0 -1 -0
    outer loop
      vertex 2.725 0 0.599999
      vertex 0 0 0
      vertex 3.125 0 0.599999
    endloop
  endfacet
  facet normal 0 -1 -0
    outer loop
      vertex 3.125 0 0.599999
      vertex 0 0 0
      vertex 3.375 0 0.599999
    endloop
  endfacet
  facet normal 0 -1 -0
    outer loop
      vertex 3.375 0 0.599999
      vertex 0 0 0
      vertex 3.775 0 0.599999
    endloop
  endfacet
  facet normal 0 -1 -0
    outer loop
      vertex 3.775 0 0.599999
      vertex 0 0 0
      vertex 4.025 0 0.599999
    endloop
  endfacet
  facet normal 0 -1 -0
    outer loop
      vertex 4.025 0 0.599999
      vertex 0 0 0
      vertex 4.425 0 0.599999
    endloop
  endfacet
  facet normal 0 -1 -0
    outer loop
      vertex 4.425 0 0.599999
      vertex 0 0 0
      vertex 4.675 0 0.599999
    endloop
  endfacet
  facet normal 0 -1 0
    outer loop
      vertex 9.1 0 0
      vertex 4.675 0 0.599999
      vertex 0 0 0
    endloop
  endfacet
  facet normal 0 -1 0
    outer loop
      vertex 4.675 0 0.599999
      vertex 9.1 0 0
      vertex 5.075 0 0.599999
    endloop
  endfacet
  facet normal 0 -1 0
    outer loop
      vertex 5.075 0 0.599999
      vertex 9.1 0 0
      vertex 5.325 0 0.599999
    endloop
  endfacet
  facet normal 0 -1 0
    outer loop
      vertex 5.325 0 0.599999
      vertex 9.1 0 0
      vertex 5.725 0 0.599999
    endloop
  endfacet
  facet normal 0 -1 0
    outer loop
      vertex 5.725 0 0.599999
      vertex 9.1 0 0
      vertex 5.975 0 0.599999
    endloop
  endfacet
  facet normal 0 -1 0
    outer loop
      vertex 5.975 0 0.599999
      vertex 9.1 0 0
      vertex 6.375 0 0.599999
    endloop
  endfacet
  facet normal 0 -1 0
    outer loop
      vertex 6.375 0 0.599999
      vertex 9.1 0 0
      vertex 6.625 0 0.599999
    endloop
  endfacet
  facet normal 0 -1 0
    outer loop
      vertex 6.625 0 0.599999
      vertex 9.1 0 0
      vertex 7.025 0 0.599999
    endloop
  endfacet
  facet normal 0 -1 0
    outer loop
      vertex 7.025 0 0.599999
      vertex 9.1 0 0
      vertex 7.275 0 0.599999
    endloop
  endfacet
  facet normal 0 -1 -0
    outer loop
      vertex 1 0 0.799999
      vertex 0 0 0
      vertex 1.425 0 0.599999
    endloop
  endfacet
  facet normal 0 -1 0
    outer loop
      vertex 0 0 0
      vertex 1 0 0.799999
      vertex 0 0 1.8
    endloop
  endfacet
  facet normal 0 -1 0
    outer loop
      vertex 1.825 0 0.599999
      vertex 2.075 0 0.799999
      vertex 1.825 0 0.799999
    endloop
  endfacet
  facet normal 0 -1 -0
    outer loop
      vertex 2.075 0 0.799999
      vertex 1.825 0 0.599999
      vertex 2.075 0 0.599999
    endloop
  endfacet
  facet normal 0 -1 0
    outer loop
      vertex 2.475 0 0.599999
      vertex 2.725 0 0.799999
      vertex 2.475 0 0.799999
    endloop
  endfacet
  facet normal 0 -1 -0
    outer loop
      vertex 2.725 0 0.799999
      vertex 2.475 0 0.599999
      vertex 2.725 0 0.599999
    endloop
  endfacet
  facet normal 0 -1 0
    outer loop
      vertex 3.125 0 0.599999
      vertex 3.375 0 0.799999
      vertex 3.125 0 0.799999
    endloop
  endfacet
  facet normal 0 -1 -0
    outer loop
      vertex 3.375 0 0.799999
      vertex 3.125 0 0.599999
      vertex 3.375 0 0.599999
    endloop
  endfacet
  facet normal 0 -1 0
    outer loop
      vertex 3.775 0 0.599999
      vertex 4.025 0 0.799999
      vertex 3.775 0 0.799999
    endloop
  endfacet
  facet normal 0 -1 -0
    outer loop
      vertex 4.025 0 0.799999
      vertex 3.775 0 0.599999
      vertex 4.025 0 0.599999
    endloop
  endfacet
  facet normal 0 -1 0
    outer loop
      vertex 4.425 0 0.599999
      vertex 4.675 0 0.799999
      vertex 4.425 0 0.799999
    endloop
  endfacet
  facet normal 0 -1 -0
    outer loop
      vertex 4.675 0 0.799999
      vertex 4.425 0 0.599999
      vertex 4.675 0 0.599999
    endloop
  endfacet
  facet normal 0 -1 0
    outer loop
      vertex 5.075 0 0.599999
      vertex 5.325 0 0.799999
      vertex 5.075 0 0.799999
    endloop
  endfacet
  facet normal 0 -1 -0
    outer loop
      vertex 5.325 0 0.799999
      vertex 5.075 0 0.599999
      vertex 5.325 0 0.599999
    endloop
  endfacet
  facet normal 0 -1 0
    outer loop
      vertex 5.725 0 0.599999
      vertex 5.975 0 0.799999
      vertex 5.725 0 0.799999
    endloop
  endfacet
  facet normal 0 -1 -0
    outer loop
      vertex 5.975 0 0.799999
      vertex 5.725 0 0.599999
      vertex 5.975 0 0.599999
    endloop
  endfacet
  facet normal 0 -1 0
    outer loop
      vertex 6.375 0 0.599999
      vertex 6.625 0 0.799999
      vertex 6.375 0 0.799999
    endloop
  endfacet
  facet normal 0 -1 -0
    outer loop
      vertex 6.625 0 0.799999
      vertex 6.375 0 0.599999
      vertex 6.625 0 0.599999
    endloop
  endfacet
  facet normal 0 -1 0
    outer loop
      vertex 7.025 0 0.599999
      vertex 7.275 0 0.799999
      vertex 7.025 0 0.799999
    endloop
  endfacet
  facet normal 0 -1 -0
    outer loop
      vertex 7.275 0 0.799999
      vertex 7.025 0 0.599999
      vertex 7.275 0 0.599999
    endloop
  endfacet
  facet normal 0 -1 0
    outer loop
      vertex 7.675 0 0.799999
      vertex 7.675 0 0.599999
      vertex 8.1 0 0.799999
    endloop
  endfacet
  facet normal 0 -1 0
    outer loop
      vertex 8.1 0 0.799999
      vertex 9.1 0 1.8
      vertex 8.1 0 1.8
    endloop
  endfacet
  facet normal 0 -1 0
    outer loop
      vertex 8.1 0 0.799999
      vertex 9.1 0 0
      vertex 9.1 0 1.8
    endloop
  endfacet
  facet normal 0 -1 0
    outer loop
      vertex 7.675 0 0.599999
      vertex 9.1 0 0
      vertex 8.1 0 0.799999
    endloop
  endfacet
  facet normal 0 -1 0
    outer loop
      vertex 7.275 0 0.599999
      vertex 9.1 0 0
      vertex 7.675 0 0.599999
    endloop
  endfacet
  facet normal 1 -0 0
    outer loop
      vertex 2.075 0 0.799999
      vertex 2.075 4.5 0.599999
      vertex 2.075 4.5 0.799999
    endloop
  endfacet
  facet normal 1 0 0
    outer loop
      vertex 2.075 4.5 0.599999
      vertex 2.075 0 0.799999
      vertex 2.075 0 0.599999
    endloop
  endfacet
  facet normal -1 0 0
    outer loop
      vertex 2.475 0 0.599999
      vertex 2.475 4.5 0.799999
      vertex 2.475 4.5 0.599999
    endloop
  endfacet
  facet normal -1 -0 0
    outer loop
      vertex 2.475 4.5 0.799999
      vertex 2.475 0 0.599999
      vertex 2.475 0 0.799999
    endloop
  endfacet
  facet normal -0 0 1
    outer loop
      vertex 2.075 4.5 0.599999
      vertex 2.475 0 0.599999
      vertex 2.475 4.5 0.599999
    endloop
  endfacet
  facet normal 0 0 1
    outer loop
      vertex 2.475 0 0.599999
      vertex 2.075 4.5 0.599999
      vertex 2.075 0 0.599999
    endloop
  endfacet
  facet normal 1 -0 0
    outer loop
      vertex 2.725 0 0.799999
      vertex 2.725 4.5 0.599999
      vertex 2.725 4.5 0.799999
    endloop
  endfacet
  facet normal 1 0 0
    outer loop
      vertex 2.725 4.5 0.599999
      vertex 2.725 0 0.799999
      vertex 2.725 0 0.599999
    endloop
  endfacet
  facet normal -1 0 0
    outer loop
      vertex 3.125 0 0.599999
      vertex 3.125 4.5 0.799999
      vertex 3.125 4.5 0.599999
    endloop
  endfacet
  facet normal -1 -0 0
    outer loop
      vertex 3.125 4.5 0.799999
      vertex 3.125 0 0.599999
      vertex 3.125 0 0.799999
    endloop
  endfacet
  facet normal -0 0 1
    outer loop
      vertex 2.725 4.5 0.599999
      vertex 3.125 0 0.599999
      vertex 3.125 4.5 0.599999
    endloop
  endfacet
  facet normal 0 0 1
    outer loop
      vertex 3.125 0 0.599999
      vertex 2.725 4.5 0.599999
      vertex 2.725 0 0.599999
    endloop
  endfacet
  facet normal 1 -0 0
    outer loop
      vertex 3.375 0 0.799999
      vertex 3.375 4.5 0.599999
      vertex 3.375 4.5 0.799999
    endloop
  endfacet
  facet normal 1 0 0
    outer loop
      vertex 3.375 4.5 0.599999
      vertex 3.375 0 0.799999
      vertex 3.375 0 0.599999
    endloop
  endfacet
  facet normal -1 0 0
    outer loop
      vertex 3.775 0 0.599999
      vertex 3.775 4.5 0.799999
      vertex 3.775 4.5 0.599999
    endloop
  endfacet
  facet normal -1 -0 0
    outer loop
      vertex 3.775 4.5 0.799999
      vertex 3.775 0 0.599999
      vertex 3.775 0 0.799999
    endloop
  endfacet
  facet normal -0 0 1
    outer loop
      vertex 3.375 4.5 0.599999
      vertex 3.775 0 0.599999
      vertex 3.775 4.5 0.599999
    endloop
  endfacet
  facet normal 0 0 1
    outer loop
      vertex 3.775 0 0.599999
      vertex 3.375 4.5 0.599999
      vertex 3.375 0 0.599999
    endloop
  endfacet
  facet normal 1 -0 0
    outer loop
      vertex 4.025 0 0.799999
      vertex 4.025 4.5 0.599999
      vertex 4.025 4.5 0.799999
    endloop
  endfacet
  facet normal 1 0 0
    outer loop
      vertex 4.025 4.5 0.599999
      vertex 4.025 0 0.799999
      vertex 4.025 0 0.599999
    endloop
  endfacet
  facet normal -1 0 0
    outer loop
      vertex 4.425 0 0.599999
      vertex 4.425 4.5 0.799999
      vertex 4.425 4.5 0.599999
    endloop
  endfacet
  facet normal -1 -0 0
    outer loop
      vertex 4.425 4.5 0.799999
      vertex 4.425 0 0.599999
      vertex 4.425 0 0.799999
    endloop
  endfacet
  facet normal -0 0 1
    outer loop
      vertex 4.025 4.5 0.599999
      vertex 4.425 0 0.599999
      vertex 4.425 4.5 0.599999
    endloop
  endfacet
  facet normal 0 0 1
    outer loop
      vertex 4.425 0 0.599999
      vertex 4.025 4.5 0.599999
      vertex 4.025 0 0.599999
    endloop
  endfacet
  facet normal 1 -0 0
    outer loop
      vertex 4.675 0 0.799999
      vertex 4.675 3.5 0.599999
      vertex 4.675 3.5 0.799999
    endloop
  endfacet
  facet normal 1 0 0
    outer loop
      vertex 4.675 3.5 0.599999
      vertex 4.675 0 0.799999
      vertex 4.675 0 0.599999
    endloop
  endfacet
  facet normal -1 0 0
    outer loop
      vertex 5.075 0 0.599999
      vertex 5.075 3.5 0.799999
      vertex 5.075 3.5 0.599999
    endloop
  endfacet
  facet normal -1 -0 0
    outer loop
      vertex 5.075 3.5 0.799999
      vertex 5.075 0 0.599999
      vertex 5.075 0 0.799999
    endloop
  endfacet
  facet normal -0 0 1
    outer loop
      vertex 4.675 3.5 0.599999
      vertex 5.075 0 0.599999
      vertex 5.075 3.5 0.599999
    endloop
  endfacet
  facet normal 0 0 1
    outer loop
      vertex 5.075 0 0.599999
      vertex 4.675 3.5 0.599999
      vertex 4.675 0 0.599999
    endloop
  endfacet
  facet normal 1 -0 0
    outer loop
      vertex 5.325 0 0.799999
      vertex 5.325 3.5 0.599999
      vertex 5.325 3.5 0.799999
    endloop
  endfacet
  facet normal 1 0 0
    outer loop
      vertex 5.325 3.5 0.599999
      vertex 5.325 0 0.799999
      vertex 5.325 0 0.599999
    endloop
  endfacet
  facet normal -1 0 0
    outer loop
      vertex 5.725 0 0.599999
      vertex 5.725 3.5 0.799999
      vertex 5.725 3.5 0.599999
    endloop
  endfacet
  facet normal -1 -0 0
    outer loop
      vertex 5.725 3.5 0.799999
      vertex 5.725 0 0.599999
      vertex 5.725 0 0.799999
    endloop
  endfacet
  facet normal -0 0 1
    outer loop
      vertex 5.325 3.5 0.599999
      vertex 5.725 0 0.599999
      vertex 5.725 3.5 0.599999
    endloop
  endfacet
  facet normal 0 0 1
    outer loop
      vertex 5.725 0 0.599999
      vertex 5.325 3.5 0.599999
      vertex 5.325 0 0.599999
    endloop
  endfacet
  facet normal 1 -0 0
    outer loop
      vertex 5.975 0 0.799999
      vertex 5.975 3.5 0.599999
      vertex 5.975 3.5 0.799999
    endloop
  endfacet
  facet normal 1 0 0
    outer loop
      vertex 5.975 3.5 0.599999
      vertex 5.975 0 0.799999
      vertex 5.975 0 0.599999
    endloop
  endfacet
  facet normal -1 0 0
    outer loop
      vertex 6.375 0 0.599999
      vertex 6.375 3.5 0.799999
      vertex 6.375 3.5 0.599999
    endloop
  endfacet
  facet normal -1 -0 0
    outer loop
      vertex 6.375 3.5 0.799999
      vertex 6.375 0 0.599999
      vertex 6.375 0 0.799999
    endloop
  endfacet
  facet normal -0 0 1
    outer loop
      vertex 5.975 3.5 0.599999
      vertex 6.375 0 0.599999
      vertex 6.375 3.5 0.599999
    endloop
  endfacet
  facet normal 0 0 1
    outer loop
      vertex 6.375 0 0.599999
      vertex 5.975 3.5 0.599999
      vertex 5.975 0 0.599999
    endloop
  endfacet
  facet normal 1 -0 0
    outer loop
      vertex 6.625 0 0.799999
      vertex 6.625 3.5 0.599999
      vertex 6.625 3.5 0.799999
    endloop
  endfacet
  facet normal 1 0 0
    outer loop
      vertex 6.625 3.5 0.599999
      vertex 6.625 0 0.799999
      vertex 6.625 0 0.599999
    endloop
  endfacet
  facet normal -1 0 0
    outer loop
      vertex 7.025 0 0.599999
      vertex 7.025 3.5 0.799999
      vertex 7.025 3.5 0.599999
    endloop
  endfacet
  facet normal -1 -0 0
    outer loop
      vertex 7.025 3.5 0.799999
      vertex 7.025 0 0.599999
      vertex 7.025 0 0.799999
    endloop
  endfacet
  facet normal -0 0 1
    outer loop
      vertex 6.625 3.5 0.599999
      vertex 7.025 0 0.599999
      vertex 7.025 3.5 0.599999
    endloop
  endfacet
  facet normal 0 0 1
    outer loop
      vertex 7.025 0 0.599999
      vertex 6.625 3.5 0.599999
      vertex 6.625 0 0.599999
    endloop
  endfacet
  facet normal 1 -0 0
    outer loop
      vertex 7.275 0 0.799999
      vertex 7.275 3.5 0.599999
      vertex 7.275 3.5 0.799999
    endloop
  endfacet
  facet normal 1 0 0
    outer loop
      vertex 7.275 3.5 0.599999
      vertex 7.275 0 0.799999
      vertex 7.275 0 0.599999
    endloop
  endfacet
  facet normal -1 0 0
    outer loop
      vertex 7.675 0 0.599999
      vertex 7.675 3.5 0.799999
      vertex 7.675 3.5 0.599999
    endloop
  endfacet
  facet normal -1 -0 0
    outer loop
      vertex 7.675 3.5 0.799999
      vertex 7.675 0 0.599999
      vertex 7.675 0 0.799999
    endloop
  endfacet
  facet normal -0 0 1
    outer loop
      vertex 7.275 3.5 0.599999
      vertex 7.675 0 0.599999
      vertex 7.675 3.5 0.599999
    endloop
  endfacet
  facet normal 0 0 1
    outer loop
      vertex 7.675 0 0.599999
      vertex 7.275 3.5 0.599999
      vertex 7.275 0 0.599999
    endloop
  endfacet
  facet normal -1 0 0
    outer loop
      vertex 0 0 0
      vertex 0 20 1.8
      vertex 0 20 0
    endloop
  endfacet
  facet normal -1 -0 0
    outer loop
      vertex 0 20 1.8
      vertex 0 0 0
      vertex 0 0 1.8
    endloop
  endfacet
  facet normal 0 0 1
    outer loop
      vertex 8.1 4.5 1.8
      vertex 9.1 20 1.8
      vertex 8.1 20 1.8
    endloop
  endfacet
  facet normal 0 0 1
    outer loop
      vertex 9.1 20 1.8
      vertex 8.1 4.5 1.8
      vertex 9.1 0 1.8
    endloop
  endfacet
  facet normal 0 0 1
    outer loop
      vertex 9.1 0 1.8
      vertex 8.1 4.5 1.8
      vertex 8.1 0 1.8
    endloop
  endfacet
  facet normal -0 0 1
    outer loop
      vertex 0 20 1.8
      vertex 1 4.5 1.8
      vertex 1 20 1.8
    endloop
  endfacet
  facet normal 0 0 1
    outer loop
      vertex 0 0 1.8
      vertex 1 4.5 1.8
      vertex 0 20 1.8
    endloop
  endfacet
  facet normal 0 0 1
    outer loop
      vertex 1 4.5 1.8
      vertex 0 0 1.8
      vertex 1 0 1.8
    endloop
  endfacet
  facet normal 1 -0 0
    outer loop
      vertex 9.1 0 1.8
      vertex 9.1 20 0
      vertex 9.1 20 1.8
    endloop
  endfacet
  facet normal 1 0 0
    outer loop
      vertex 9.1 20 0
      vertex 9.1 0 1.8
      vertex 9.1 0 0
    endloop
  endfacet
  facet normal 0 0 -1
    outer loop
      vertex 0 0 0
      vertex 9.1 20 0
      vertex 9.1 0 0
    endloop
  endfacet
  facet normal -0 0 -1
    outer loop
      vertex 9.1 20 0
      vertex 0 0 0
      vertex 0 20 0
    endloop
  endfacet
  facet normal 0 1 -0
    outer loop
      vertex 9.1 20 0
      vertex 8.1 20 1.8
      vertex 9.1 20 1.8
    endloop
  endfacet
  facet normal 0 1 0
    outer loop
      vertex 8.1 20 1.8
      vertex 9.1 20 0
      vertex 1 20 1.8
    endloop
  endfacet
  facet normal 0 1 0
    outer loop
      vertex 0 20 0
      vertex 1 20 1.8
      vertex 9.1 20 0
    endloop
  endfacet
  facet normal 0 1 0
    outer loop
      vertex 1 20 1.8
      vertex 0 20 0
      vertex 0 20 1.8
    endloop
  endfacet
  facet normal 0 1 -0
    outer loop
      vertex 8.1 20 1.8
      vertex 1 20 3
      vertex 8.1 20 3
    endloop
  endfacet
  facet normal 0 1 0
    outer loop
      vertex 1 20 3
      vertex 8.1 20 1.8
      vertex 1 20 1.8
    endloop
  endfacet
  facet normal -1 0 0
    outer loop
      vertex 1 4.5 2.6
      vertex 1 20 1.8
      vertex 1 4.5 1.8
    endloop
  endfacet
  facet normal -1 0 0
    outer loop
      vertex 1 20 1.8
      vertex 1 4.5 2.6
      vertex 1 20 3
    endloop
  endfacet
  facet normal -1 -0 0
    outer loop
      vertex 1 20 3
      vertex 1 4.5 2.6
      vertex 1 4.5 3
    endloop
  endfacet
  facet normal 0 0 1
    outer loop
      vertex 8.1 20 3
      vertex 7.875 11 3
      vertex 8.1 4.5 3
    endloop
  endfacet
  facet normal 0 0 1
    outer loop
      vertex 8.1 20 3
      vertex 7.05 15 3
      vertex 7.875 11 3
    endloop
  endfacet
  facet normal 0 0 1
    outer loop
      vertex 8.1 20 3
      vertex 6.99537 15.5198 3
      vertex 7.05 15 3
    endloop
  endfacet
  facet normal 0 0 1
    outer loop
      vertex 8.1 20 3
      vertex 6.83386 16.0168 3
      vertex 6.99537 15.5198 3
    endloop
  endfacet
  facet normal 0 0 1
    outer loop
      vertex 8.1 20 3
      vertex 6.57254 16.4695 3
      vertex 6.83386 16.0168 3
    endloop
  endfacet
  facet normal 0 0 1
    outer loop
      vertex 8.1 20 3
      vertex 6.22283 16.8579 3
      vertex 6.57254 16.4695 3
    endloop
  endfacet
  facet normal 0 0 1
    outer loop
      vertex 8.1 20 3
      vertex 5.8 17.1651 3
      vertex 6.22283 16.8579 3
    endloop
  endfacet
  facet normal 0 0 1
    outer loop
      vertex 8.1 20 3
      vertex 5.32254 17.3776 3
      vertex 5.8 17.1651 3
    endloop
  endfacet
  facet normal 0 0 1
    outer loop
      vertex 8.1 20 3
      vertex 4.81132 17.4863 3
      vertex 5.32254 17.3776 3
    endloop
  endfacet
  facet normal 0 0 1
    outer loop
      vertex 8.1 20 3
      vertex 4.28868 17.4863 3
      vertex 4.81132 17.4863 3
    endloop
  endfacet
  facet normal -0 0 1
    outer loop
      vertex 1 20 3
      vertex 4.28868 17.4863 3
      vertex 8.1 20 3
    endloop
  endfacet
  facet normal 0 0 1
    outer loop
      vertex 4.28868 17.4863 3
      vertex 1 20 3
      vertex 3.77746 17.3776 3
    endloop
  endfacet
  facet normal 0 0 1
    outer loop
      vertex 2.10463 15.5198 3
      vertex 1 20 3
      vertex 2.05 15 3
    endloop
  endfacet
  facet normal 0 0 1
    outer loop
      vertex 2.26614 16.0168 3
      vertex 1 20 3
      vertex 2.10463 15.5198 3
    endloop
  endfacet
  facet normal 0 0 1
    outer loop
      vertex 2.52746 16.4695 3
      vertex 1 20 3
      vertex 2.26614 16.0168 3
    endloop
  endfacet
  facet normal 0 0 1
    outer loop
      vertex 2.87717 16.8579 3
      vertex 1 20 3
      vertex 2.52746 16.4695 3
    endloop
  endfacet
  facet normal 0 0 1
    outer loop
      vertex 3.3 17.1651 3
      vertex 1 20 3
      vertex 2.87717 16.8579 3
    endloop
  endfacet
  facet normal 0 0 1
    outer loop
      vertex 3.77746 17.3776 3
      vertex 1 20 3
      vertex 3.3 17.1651 3
    endloop
  endfacet
  facet normal 0 0 1
    outer loop
      vertex 8.1 4.5 3
      vertex 7.875 11 3
      vertex 7.875 4.5 3
    endloop
  endfacet
  facet normal -0 0 1
    outer loop
      vertex 6.99537 14.4802 3
      vertex 7.875 11 3
      vertex 7.05 15 3
    endloop
  endfacet
  facet normal -0 0 1
    outer loop
      vertex 6.83386 13.9832 3
      vertex 7.875 11 3
      vertex 6.99537 14.4802 3
    endloop
  endfacet
  facet normal -0 0 1
    outer loop
      vertex 6.57254 13.5305 3
      vertex 7.875 11 3
      vertex 6.83386 13.9832 3
    endloop
  endfacet
  facet normal -0 0 1
    outer loop
      vertex 6.22283 13.1421 3
      vertex 7.875 11 3
      vertex 6.57254 13.5305 3
    endloop
  endfacet
  facet normal -0 0 1
    outer loop
      vertex 5.8 12.8349 3
      vertex 7.875 11 3
      vertex 6.22283 13.1421 3
    endloop
  endfacet
  facet normal -0 0 1
    outer loop
      vertex 5.32254 12.6224 3
      vertex 7.875 11 3
      vertex 5.8 12.8349 3
    endloop
  endfacet
  facet normal 0 0 1
    outer loop
      vertex 4.475 11 3
      vertex 5.32254 12.6224 3
      vertex 4.81132 12.5137 3
    endloop
  endfacet
  facet normal 0 0 1
    outer loop
      vertex 5.32254 12.6224 3
      vertex 4.475 11 3
      vertex 7.875 11 3
    endloop
  endfacet
  facet normal -0 0 1
    outer loop
      vertex 4.28868 12.5137 3
      vertex 4.475 11 3
      vertex 4.81132 12.5137 3
    endloop
  endfacet
  facet normal 0 0 1
    outer loop
      vertex 3.77746 12.6224 3
      vertex 4.475 11 3
      vertex 4.28868 12.5137 3
    endloop
  endfacet
  facet normal 0 0 1
    outer loop
      vertex 3.3 12.8349 3
      vertex 4.475 11 3
      vertex 3.77746 12.6224 3
    endloop
  endfacet
  facet normal 0 0 1
    outer loop
      vertex 2.87717 13.1421 3
      vertex 4.475 11 3
      vertex 3.3 12.8349 3
    endloop
  endfacet
  facet normal 0 0 1
    outer loop
      vertex 4.475 11 3
      vertex 2.87717 13.1421 3
      vertex 1 4.5 3
    endloop
  endfacet
  facet normal 0 0 1
    outer loop
      vertex 1 4.5 3
      vertex 2.87717 13.1421 3
      vertex 2.52746 13.5305 3
    endloop
  endfacet
  facet normal 0 0 1
    outer loop
      vertex 1 4.5 3
      vertex 2.52746 13.5305 3
      vertex 2.26614 13.9832 3
    endloop
  endfacet
  facet normal 0 0 1
    outer loop
      vertex 1 4.5 3
      vertex 2.26614 13.9832 3
      vertex 2.10463 14.4802 3
    endloop
  endfacet
  facet normal 0 0 1
    outer loop
      vertex 1 20 3
      vertex 2.10463 14.4802 3
      vertex 2.05 15 3
    endloop
  endfacet
  facet normal 0 0 1
    outer loop
      vertex 4.475 11 3
      vertex 1 4.5 3
      vertex 4.475 4.5 3
    endloop
  endfacet
  facet normal 0 0 1
    outer loop
      vertex 1 4.5 3
      vertex 2.10463 14.4802 3
      vertex 1 20 3
    endloop
  endfacet
  facet normal 1 0 0
    outer loop
      vertex 8.1 4.5 2.6
      vertex 8.1 20 3
      vertex 8.1 4.5 3
    endloop
  endfacet
  facet normal 1 0 0
    outer loop
      vertex 8.1 20 3
      vertex 8.1 4.5 2.6
      vertex 8.1 20 1.8
    endloop
  endfacet
  facet normal 1 0 0
    outer loop
      vertex 8.1 20 1.8
      vertex 8.1 4.5 2.6
      vertex 8.1 4.5 1.8
    endloop
  endfacet
  facet normal 1 -0 0
    outer loop
      vertex 1 0 1.8
      vertex 1 4.5 0.799999
      vertex 1 4.5 1.8
    endloop
  endfacet
  facet normal 1 0 0
    outer loop
      vertex 1 4.5 0.799999
      vertex 1 0 1.8
      vertex 1 0 0.799999
    endloop
  endfacet
  facet normal -1 0 0
    outer loop
      vertex 8.1 0 0.799999
      vertex 8.1 4.5 1.8
      vertex 8.1 4.5 0.799999
    endloop
  endfacet
  facet normal -1 -0 0
    outer loop
      vertex 8.1 4.5 1.8
      vertex 8.1 0 0.799999
      vertex 8.1 0 1.8
    endloop
  endfacet
  facet normal -0 0 1
    outer loop
      vertex 1 4.5 0.799999
      vertex 1.425 0 0.799999
      vertex 1.425 4.5 0.799999
    endloop
  endfacet
  facet normal 0 0 1
    outer loop
      vertex 1.425 0 0.799999
      vertex 1 4.5 0.799999
      vertex 1 0 0.799999
    endloop
  endfacet
  facet normal 0 0 1
    outer loop
      vertex 7.875 3.5 0.799999
      vertex 8.1 4.5 0.799999
      vertex 7.875 4.5 0.799999
    endloop
  endfacet
  facet normal 0 0 1
    outer loop
      vertex 8.1 4.5 0.799999
      vertex 7.875 3.5 0.799999
      vertex 8.1 0 0.799999
    endloop
  endfacet
  facet normal 0 0 1
    outer loop
      vertex 7.675 0 0.799999
      vertex 7.875 3.5 0.799999
      vertex 7.675 3.5 0.799999
    endloop
  endfacet
  facet normal 0 0 1
    outer loop
      vertex 7.875 3.5 0.799999
      vertex 7.675 0 0.799999
      vertex 8.1 0 0.799999
    endloop
  endfacet
  facet normal -0 0 1
    outer loop
      vertex 1.825 4.5 0.799999
      vertex 2.075 0 0.799999
      vertex 2.075 4.5 0.799999
    endloop
  endfacet
  facet normal 0 0 1
    outer loop
      vertex 2.075 0 0.799999
      vertex 1.825 4.5 0.799999
      vertex 1.825 0 0.799999
    endloop
  endfacet
  facet normal -0 0 1
    outer loop
      vertex 2.475 4.5 0.799999
      vertex 2.725 0 0.799999
      vertex 2.725 4.5 0.799999
    endloop
  endfacet
  facet normal 0 0 1
    outer loop
      vertex 2.725 0 0.799999
      vertex 2.475 4.5 0.799999
      vertex 2.475 0 0.799999
    endloop
  endfacet
  facet normal -0 0 1
    outer loop
      vertex 3.125 4.5 0.799999
      vertex 3.375 0 0.799999
      vertex 3.375 4.5 0.799999
    endloop
  endfacet
  facet normal 0 0 1
    outer loop
      vertex 3.375 0 0.799999
      vertex 3.125 4.5 0.799999
      vertex 3.125 0 0.799999
    endloop
  endfacet
  facet normal -0 0 1
    outer loop
      vertex 3.775 4.5 0.799999
      vertex 4.025 0 0.799999
      vertex 4.025 4.5 0.799999
    endloop
  endfacet
  facet normal 0 0 1
    outer loop
      vertex 4.025 0 0.799999
      vertex 3.775 4.5 0.799999
      vertex 3.775 0 0.799999
    endloop
  endfacet
  facet normal 0 0 1
    outer loop
      vertex 4.475 4.5 0.799999
      vertex 4.425 4.5 0.799999
      vertex 4.475 3.5 0.799999
    endloop
  endfacet
  facet normal -0 0 1
    outer loop
      vertex 4.475 3.5 0.799999
      vertex 4.675 0 0.799999
      vertex 4.675 3.5 0.799999
    endloop
  endfacet
  facet normal 0 0 1
    outer loop
      vertex 4.475 3.5 0.799999
      vertex 4.425 0 0.799999
      vertex 4.675 0 0.799999
    endloop
  endfacet
  facet normal 0 0 1
    outer loop
      vertex 4.425 0 0.799999
      vertex 4.475 3.5 0.799999
      vertex 4.425 4.5 0.799999
    endloop
  endfacet
  facet normal -0 0 1
    outer loop
      vertex 5.075 3.5 0.799999
      vertex 5.325 0 0.799999
      vertex 5.325 3.5 0.799999
    endloop
  endfacet
  facet normal 0 0 1
    outer loop
      vertex 5.325 0 0.799999
      vertex 5.075 3.5 0.799999
      vertex 5.075 0 0.799999
    endloop
  endfacet
  facet normal -0 0 1
    outer loop
      vertex 5.725 3.5 0.799999
      vertex 5.975 0 0.799999
      vertex 5.975 3.5 0.799999
    endloop
  endfacet
  facet normal 0 0 1
    outer loop
      vertex 5.975 0 0.799999
      vertex 5.725 3.5 0.799999
      vertex 5.725 0 0.799999
    endloop
  endfacet
  facet normal -0 0 1
    outer loop
      vertex 6.375 3.5 0.799999
      vertex 6.625 0 0.799999
      vertex 6.625 3.5 0.799999
    endloop
  endfacet
  facet normal 0 0 1
    outer loop
      vertex 6.625 0 0.799999
      vertex 6.375 3.5 0.799999
      vertex 6.375 0 0.799999
    endloop
  endfacet
  facet normal -0 0 1
    outer loop
      vertex 7.025 3.5 0.799999
      vertex 7.275 0 0.799999
      vertex 7.275 3.5 0.799999
    endloop
  endfacet
  facet normal 0 0 1
    outer loop
      vertex 7.275 0 0.799999
      vertex 7.025 3.5 0.799999
      vertex 7.025 0 0.799999
    endloop
  endfacet
  facet normal 1 0 0
    outer loop
      vertex 4.475 4.5 2.6
      vertex 4.475 11 3
      vertex 4.475 4.5 3
    endloop
  endfacet
  facet normal 1 0 0
    outer loop
      vertex 4.475 11 3
      vertex 4.475 4.5 2.6
      vertex 4.475 11 0.4
    endloop
  endfacet
  facet normal 1 -0 0
    outer loop
      vertex 4.475 4.5 0.799999
      vertex 4.475 11 0.4
      vertex 4.475 4.5 2.6
    endloop
  endfacet
  facet normal 1 0 0
    outer loop
      vertex 4.475 3.5 0.4
      vertex 4.475 4.5 0.799999
      vertex 4.475 3.5 0.799999
    endloop
  endfacet
  facet normal 1 0 0
    outer loop
      vertex 4.475 4.5 0.799999
      vertex 4.475 3.5 0.4
      vertex 4.475 11 0.4
    endloop
  endfacet
  facet normal -1 0 0
    outer loop
      vertex 7.875 11 0.4
      vertex 7.875 4.5 0.799999
      vertex 7.875 11 3
    endloop
  endfacet
  facet normal -1 0 0
    outer loop
      vertex 7.875 3.5 0.4
      vertex 7.875 4.5 0.799999
      vertex 7.875 11 0.4
    endloop
  endfacet
  facet normal -1 -0 0
    outer loop
      vertex 7.875 4.5 0.799999
      vertex 7.875 3.5 0.4
      vertex 7.875 3.5 0.799999
    endloop
  endfacet
  facet normal -1 0 0
    outer loop
      vertex 7.875 4.5 2.6
      vertex 7.875 11 3
      vertex 7.875 4.5 0.799999
    endloop
  endfacet
  facet normal -1 -0 0
    outer loop
      vertex 7.875 11 3
      vertex 7.875 4.5 2.6
      vertex 7.875 4.5 3
    endloop
  endfacet
  facet normal 0 -1 0
    outer loop
      vertex 4.475 11 0.4
      vertex 7.875 11 3
      vertex 4.475 11 3
    endloop
  endfacet
  facet normal 0 -1 -0
    outer loop
      vertex 7.875 11 3
      vertex 4.475 11 0.4
      vertex 7.875 11 0.4
    endloop
  endfacet
  facet normal -0 0 1
    outer loop
      vertex 4.475 11 0.4
      vertex 7.875 3.5 0.4
      vertex 7.875 11 0.4
    endloop
  endfacet
  facet normal 0 0 1
    outer loop
      vertex 7.875 3.5 0.4
      vertex 4.475 11 0.4
      vertex 4.475 3.5 0.4
    endloop
  endfacet
  facet normal 0 1 0
    outer loop
      vertex 7.875 3.5 0.799999
      vertex 7.675 3.5 0.599999
      vertex 7.675 3.5 0.799999
    endloop
  endfacet
  facet normal 0 1 0
    outer loop
      vertex 7.875 3.5 0.4
      vertex 7.275 3.5 0.599999
      vertex 7.675 3.5 0.599999
    endloop
  endfacet
  facet normal 0 1 0
    outer loop
      vertex 7.275 3.5 0.599999
      vertex 7.875 3.5 0.4
      vertex 7.025 3.5 0.599999
    endloop
  endfacet
  facet normal 0 1 0
    outer loop
      vertex 7.025 3.5 0.599999
      vertex 7.875 3.5 0.4
      vertex 6.625 3.5 0.599999
    endloop
  endfacet
  facet normal 0 1 0
    outer loop
      vertex 6.625 3.5 0.599999
      vertex 7.875 3.5 0.4
      vertex 6.375 3.5 0.599999
    endloop
  endfacet
  facet normal 0 1 0
    outer loop
      vertex 6.375 3.5 0.599999
      vertex 7.875 3.5 0.4
      vertex 5.975 3.5 0.599999
    endloop
  endfacet
  facet normal 0 1 0
    outer loop
      vertex 4.475 3.5 0.4
      vertex 5.975 3.5 0.599999
      vertex 7.875 3.5 0.4
    endloop
  endfacet
  facet normal 0 1 0
    outer loop
      vertex 5.975 3.5 0.599999
      vertex 4.475 3.5 0.4
      vertex 5.725 3.5 0.599999
    endloop
  endfacet
  facet normal 0 1 0
    outer loop
      vertex 5.725 3.5 0.599999
      vertex 4.475 3.5 0.4
      vertex 5.325 3.5 0.599999
    endloop
  endfacet
  facet normal 0 1 0
    outer loop
      vertex 5.325 3.5 0.599999
      vertex 4.475 3.5 0.4
      vertex 5.075 3.5 0.599999
    endloop
  endfacet
  facet normal 0 1 -0
    outer loop
      vertex 7.875 3.5 0.4
      vertex 7.675 3.5 0.599999
      vertex 7.875 3.5 0.799999
    endloop
  endfacet
  facet normal 0 1 -0
    outer loop
      vertex 7.275 3.5 0.599999
      vertex 7.025 3.5 0.799999
      vertex 7.275 3.5 0.799999
    endloop
  endfacet
  facet normal 0 1 0
    outer loop
      vertex 7.025 3.5 0.799999
      vertex 7.275 3.5 0.599999
      vertex 7.025 3.5 0.599999
    endloop
  endfacet
  facet normal 0 1 -0
    outer loop
      vertex 6.625 3.5 0.599999
      vertex 6.375 3.5 0.799999
      vertex 6.625 3.5 0.799999
    endloop
  endfacet
  facet normal 0 1 0
    outer loop
      vertex 6.375 3.5 0.799999
      vertex 6.625 3.5 0.599999
      vertex 6.375 3.5 0.599999
    endloop
  endfacet
  facet normal 0 1 -0
    outer loop
      vertex 5.975 3.5 0.599999
      vertex 5.725 3.5 0.799999
      vertex 5.975 3.5 0.799999
    endloop
  endfacet
  facet normal 0 1 0
    outer loop
      vertex 5.725 3.5 0.799999
      vertex 5.975 3.5 0.599999
      vertex 5.725 3.5 0.599999
    endloop
  endfacet
  facet normal 0 1 -0
    outer loop
      vertex 5.325 3.5 0.599999
      vertex 5.075 3.5 0.799999
      vertex 5.325 3.5 0.799999
    endloop
  endfacet
  facet normal 0 1 0
    outer loop
      vertex 5.075 3.5 0.799999
      vertex 5.325 3.5 0.599999
      vertex 5.075 3.5 0.599999
    endloop
  endfacet
  facet normal 0 1 -0
    outer loop
      vertex 4.675 3.5 0.599999
      vertex 4.475 3.5 0.799999
      vertex 4.675 3.5 0.799999
    endloop
  endfacet
  facet normal 0 1 0
    outer loop
      vertex 4.675 3.5 0.599999
      vertex 4.475 3.5 0.4
      vertex 4.475 3.5 0.799999
    endloop
  endfacet
  facet normal 0 1 0
    outer loop
      vertex 5.075 3.5 0.599999
      vertex 4.475 3.5 0.4
      vertex 4.675 3.5 0.599999
    endloop
  endfacet
  facet normal 0.866025 0.5 0
    outer loop
      vertex 6.83386 16.0168 5
      vertex 6.57254 16.4695 3
      vertex 6.57254 16.4695 5
    endloop
  endfacet
  facet normal 0.866025 0.5 0
    outer loop
      vertex 6.57254 16.4695 3
      vertex 6.83386 16.0168 5
      vertex 6.83386 16.0168 3
    endloop
  endfacet
  facet normal -0.994522 -0.104529 0
    outer loop
      vertex 2.10463 14.4802 3
      vertex 2.05 15 5
      vertex 2.05 15 3
    endloop
  endfacet
  facet normal -0.994522 -0.104529 0
    outer loop
      vertex 2.05 15 5
      vertex 2.10463 14.4802 3
      vertex 2.10463 14.4802 5
    endloop
  endfacet
  facet normal -0.951056 0.309017 0
    outer loop
      vertex 2.10463 15.5198 3
      vertex 2.26614 16.0168 5
      vertex 2.26614 16.0168 3
    endloop
  endfacet
  facet normal -0.951056 0.309017 0
    outer loop
      vertex 2.26614 16.0168 5
      vertex 2.10463 15.5198 3
      vertex 2.10463 15.5198 5
    endloop
  endfacet
  facet normal 0.743143 0.669132 0
    outer loop
      vertex 6.57254 16.4695 5
      vertex 6.22283 16.8579 3
      vertex 6.22283 16.8579 5
    endloop
  endfacet
  facet normal 0.743143 0.669132 0
    outer loop
      vertex 6.22283 16.8579 3
      vertex 6.57254 16.4695 5
      vertex 6.57254 16.4695 3
    endloop
  endfacet
  facet normal 0.207915 0.978147 -0
    outer loop
      vertex 5.32254 17.3776 3
      vertex 4.81132 17.4863 5
      vertex 5.32254 17.3776 5
    endloop
  endfacet
  facet normal 0.207915 0.978147 0
    outer loop
      vertex 4.81132 17.4863 5
      vertex 5.32254 17.3776 3
      vertex 4.81132 17.4863 3
    endloop
  endfacet
  facet normal 0.406737 0.913545 -0
    outer loop
      vertex 5.8 17.1651 3
      vertex 5.32254 17.3776 5
      vertex 5.8 17.1651 5
    endloop
  endfacet
  facet normal 0.406737 0.913545 0
    outer loop
      vertex 5.32254 17.3776 5
      vertex 5.8 17.1651 3
      vertex 5.32254 17.3776 3
    endloop
  endfacet
  facet normal -0.406736 0.913546 0
    outer loop
      vertex 3.77746 17.3776 3
      vertex 3.3 17.1651 5
      vertex 3.77746 17.3776 5
    endloop
  endfacet
  facet normal -0.406736 0.913546 0
    outer loop
      vertex 3.3 17.1651 5
      vertex 3.77746 17.3776 3
      vertex 3.3 17.1651 3
    endloop
  endfacet
  facet normal -0.866025 0.5 0
    outer loop
      vertex 2.26614 16.0168 3
      vertex 2.52746 16.4695 5
      vertex 2.52746 16.4695 3
    endloop
  endfacet
  facet normal -0.866025 0.5 0
    outer loop
      vertex 2.52746 16.4695 5
      vertex 2.26614 16.0168 3
      vertex 2.26614 16.0168 5
    endloop
  endfacet
  facet normal -0.587786 0.809017 0
    outer loop
      vertex 3.3 17.1651 3
      vertex 2.87717 16.8579 5
      vertex 3.3 17.1651 5
    endloop
  endfacet
  facet normal -0.587786 0.809017 0
    outer loop
      vertex 2.87717 16.8579 5
      vertex 3.3 17.1651 3
      vertex 2.87717 16.8579 3
    endloop
  endfacet
  facet normal 0.994522 -0.104527 0
    outer loop
      vertex 6.99537 14.4802 5
      vertex 7.05 15 3
      vertex 7.05 15 5
    endloop
  endfacet
  facet normal 0.994522 -0.104527 0
    outer loop
      vertex 7.05 15 3
      vertex 6.99537 14.4802 5
      vertex 6.99537 14.4802 3
    endloop
  endfacet
  facet normal 0 1 -0
    outer loop
      vertex 4.81132 17.4863 3
      vertex 4.28868 17.4863 5
      vertex 4.81132 17.4863 5
    endloop
  endfacet
  facet normal 0 1 0
    outer loop
      vertex 4.28868 17.4863 5
      vertex 4.81132 17.4863 3
      vertex 4.28868 17.4863 3
    endloop
  endfacet
  facet normal 0.587785 0.809017 -0
    outer loop
      vertex 6.22283 16.8579 3
      vertex 5.8 17.1651 5
      vertex 6.22283 16.8579 5
    endloop
  endfacet
  facet normal 0.587785 0.809017 0
    outer loop
      vertex 5.8 17.1651 5
      vertex 6.22283 16.8579 3
      vertex 5.8 17.1651 3
    endloop
  endfacet
  facet normal -0.994522 0.104529 0
    outer loop
      vertex 2.05 15 3
      vertex 2.10463 15.5198 5
      vertex 2.10463 15.5198 3
    endloop
  endfacet
  facet normal -0.994522 0.104529 0
    outer loop
      vertex 2.10463 15.5198 5
      vertex 2.05 15 3
      vertex 2.05 15 5
    endloop
  endfacet
  facet normal -0.743143 0.669132 0
    outer loop
      vertex 2.52746 16.4695 3
      vertex 2.87717 16.8579 5
      vertex 2.87717 16.8579 3
    endloop
  endfacet
  facet normal -0.743143 0.669132 0
    outer loop
      vertex 2.87717 16.8579 5
      vertex 2.52746 16.4695 3
      vertex 2.52746 16.4695 5
    endloop
  endfacet
  facet normal -0.207916 0.978147 0
    outer loop
      vertex 4.28868 17.4863 3
      vertex 3.77746 17.3776 5
      vertex 4.28868 17.4863 5
    endloop
  endfacet
  facet normal -0.207916 0.978147 0
    outer loop
      vertex 3.77746 17.3776 5
      vertex 4.28868 17.4863 3
      vertex 3.77746 17.3776 3
    endloop
  endfacet
  facet normal 0.994522 0.104527 0
    outer loop
      vertex 7.05 15 5
      vertex 6.99537 15.5198 3
      vertex 6.99537 15.5198 5
    endloop
  endfacet
  facet normal 0.994522 0.104527 0
    outer loop
      vertex 6.99537 15.5198 3
      vertex 7.05 15 5
      vertex 7.05 15 3
    endloop
  endfacet
  facet normal 0.587785 -0.809017 0
    outer loop
      vertex 5.8 12.8349 3
      vertex 6.22283 13.1421 5
      vertex 5.8 12.8349 5
    endloop
  endfacet
  facet normal 0.587785 -0.809017 0
    outer loop
      vertex 6.22283 13.1421 5
      vertex 5.8 12.8349 3
      vertex 6.22283 13.1421 3
    endloop
  endfacet
  facet normal 0.951056 -0.309018 0
    outer loop
      vertex 6.83386 13.9832 5
      vertex 6.99537 14.4802 3
      vertex 6.99537 14.4802 5
    endloop
  endfacet
  facet normal 0.951056 -0.309018 0
    outer loop
      vertex 6.99537 14.4802 3
      vertex 6.83386 13.9832 5
      vertex 6.83386 13.9832 3
    endloop
  endfacet
  facet normal 0.951056 0.309017 0
    outer loop
      vertex 6.99537 15.5198 5
      vertex 6.83386 16.0168 3
      vertex 6.83386 16.0168 5
    endloop
  endfacet
  facet normal 0.951056 0.309017 0
    outer loop
      vertex 6.83386 16.0168 3
      vertex 6.99537 15.5198 5
      vertex 6.99537 15.5198 3
    endloop
  endfacet
  facet normal 0 0 1
    outer loop
      vertex 6.99537 15.5198 5
      vertex 6.99537 14.4802 5
      vertex 7.05 15 5
    endloop
  endfacet
  facet normal 0 0 1
    outer loop
      vertex 6.83386 16.0168 5
      vertex 6.99537 14.4802 5
      vertex 6.99537 15.5198 5
    endloop
  endfacet
  facet normal 0 0 1
    outer loop
      vertex 6.83386 16.0168 5
      vertex 6.83386 13.9832 5
      vertex 6.99537 14.4802 5
    endloop
  endfacet
  facet normal 0 0 1
    outer loop
      vertex 6.57254 16.4695 5
      vertex 6.83386 13.9832 5
      vertex 6.83386 16.0168 5
    endloop
  endfacet
  facet normal 0 0 1
    outer loop
      vertex 6.57254 16.4695 5
      vertex 6.57254 13.5305 5
      vertex 6.83386 13.9832 5
    endloop
  endfacet
  facet normal 0 0 1
    outer loop
      vertex 6.22283 16.8579 5
      vertex 6.57254 13.5305 5
      vertex 6.57254 16.4695 5
    endloop
  endfacet
  facet normal 0 0 1
    outer loop
      vertex 6.22283 16.8579 5
      vertex 6.22283 13.1421 5
      vertex 6.57254 13.5305 5
    endloop
  endfacet
  facet normal 0 0 1
    outer loop
      vertex 5.8 17.1651 5
      vertex 6.22283 13.1421 5
      vertex 6.22283 16.8579 5
    endloop
  endfacet
  facet normal 0 0 1
    outer loop
      vertex 5.8 17.1651 5
      vertex 5.8 12.8349 5
      vertex 6.22283 13.1421 5
    endloop
  endfacet
  facet normal 0 0 1
    outer loop
      vertex 5.32254 17.3776 5
      vertex 5.8 12.8349 5
      vertex 5.8 17.1651 5
    endloop
  endfacet
  facet normal 0 0 1
    outer loop
      vertex 5.32254 17.3776 5
      vertex 5.32254 12.6224 5
      vertex 5.8 12.8349 5
    endloop
  endfacet
  facet normal 0 0 1
    outer loop
      vertex 4.81132 17.4863 5
      vertex 5.32254 12.6224 5
      vertex 5.32254 17.3776 5
    endloop
  endfacet
  facet normal 0 0 1
    outer loop
      vertex 4.81132 17.4863 5
      vertex 4.81132 12.5137 5
      vertex 5.32254 12.6224 5
    endloop
  endfacet
  facet normal -0 0 1
    outer loop
      vertex 4.28868 17.4863 5
      vertex 4.81132 12.5137 5
      vertex 4.81132 17.4863 5
    endloop
  endfacet
  facet normal 0 0 1
    outer loop
      vertex 4.28868 17.4863 5
      vertex 4.28868 12.5137 5
      vertex 4.81132 12.5137 5
    endloop
  endfacet
  facet normal -0 0 1
    outer loop
      vertex 3.77746 17.3776 5
      vertex 4.28868 12.5137 5
      vertex 4.28868 17.4863 5
    endloop
  endfacet
  facet normal 0 0 1
    outer loop
      vertex 3.77746 17.3776 5
      vertex 3.77746 12.6224 5
      vertex 4.28868 12.5137 5
    endloop
  endfacet
  facet normal -0 0 1
    outer loop
      vertex 3.3 17.1651 5
      vertex 3.77746 12.6224 5
      vertex 3.77746 17.3776 5
    endloop
  endfacet
  facet normal 0 0 1
    outer loop
      vertex 3.3 17.1651 5
      vertex 3.3 12.8349 5
      vertex 3.77746 12.6224 5
    endloop
  endfacet
  facet normal -0 0 1
    outer loop
      vertex 2.87717 16.8579 5
      vertex 3.3 12.8349 5
      vertex 3.3 17.1651 5
    endloop
  endfacet
  facet normal 0 0 1
    outer loop
      vertex 2.87717 16.8579 5
      vertex 2.87717 13.1421 5
      vertex 3.3 12.8349 5
    endloop
  endfacet
  facet normal -0 0 1
    outer loop
      vertex 2.52746 16.4695 5
      vertex 2.87717 13.1421 5
      vertex 2.87717 16.8579 5
    endloop
  endfacet
  facet normal 0 0 1
    outer loop
      vertex 2.52746 16.4695 5
      vertex 2.52746 13.5305 5
      vertex 2.87717 13.1421 5
    endloop
  endfacet
  facet normal -0 0 1
    outer loop
      vertex 2.26614 16.0168 5
      vertex 2.52746 13.5305 5
      vertex 2.52746 16.4695 5
    endloop
  endfacet
  facet normal 0 0 1
    outer loop
      vertex 2.26614 16.0168 5
      vertex 2.26614 13.9832 5
      vertex 2.52746 13.5305 5
    endloop
  endfacet
  facet normal -0 0 1
    outer loop
      vertex 2.10463 15.5198 5
      vertex 2.26614 13.9832 5
      vertex 2.26614 16.0168 5
    endloop
  endfacet
  facet normal 0 0 1
    outer loop
      vertex 2.10463 15.5198 5
      vertex 2.10463 14.4802 5
      vertex 2.26614 13.9832 5
    endloop
  endfacet
  facet normal 0 -0 1
    outer loop
      vertex 2.10463 14.4802 5
      vertex 2.10463 15.5198 5
      vertex 2.05 15 5
    endloop
  endfacet
  facet normal 0 -1 0
    outer loop
      vertex 4.28868 12.5137 3
      vertex 4.81132 12.5137 5
      vertex 4.28868 12.5137 5
    endloop
  endfacet
  facet normal 0 -1 -0
    outer loop
      vertex 4.81132 12.5137 5
      vertex 4.28868 12.5137 3
      vertex 4.81132 12.5137 3
    endloop
  endfacet
  facet normal 0.207912 -0.978148 0
    outer loop
      vertex 4.81132 12.5137 3
      vertex 5.32254 12.6224 5
      vertex 4.81132 12.5137 5
    endloop
  endfacet
  facet normal 0.207912 -0.978148 0
    outer loop
      vertex 5.32254 12.6224 5
      vertex 4.81132 12.5137 3
      vertex 5.32254 12.6224 3
    endloop
  endfacet
  facet normal 0.406737 -0.913545 0
    outer loop
      vertex 5.32254 12.6224 3
      vertex 5.8 12.8349 5
      vertex 5.32254 12.6224 5
    endloop
  endfacet
  facet normal 0.406737 -0.913545 0
    outer loop
      vertex 5.8 12.8349 5
      vertex 5.32254 12.6224 3
      vertex 5.8 12.8349 3
    endloop
  endfacet
  facet normal 0.743145 -0.669131 0
    outer loop
      vertex 6.22283 13.1421 5
      vertex 6.57254 13.5305 3
      vertex 6.57254 13.5305 5
    endloop
  endfacet
  facet normal 0.743145 -0.669131 0
    outer loop
      vertex 6.57254 13.5305 3
      vertex 6.22283 13.1421 5
      vertex 6.22283 13.1421 3
    endloop
  endfacet
  facet normal 0.866025 -0.5 0
    outer loop
      vertex 6.57254 13.5305 5
      vertex 6.83386 13.9832 3
      vertex 6.83386 13.9832 5
    endloop
  endfacet
  facet normal 0.866025 -0.5 0
    outer loop
      vertex 6.83386 13.9832 3
      vertex 6.57254 13.5305 5
      vertex 6.57254 13.5305 3
    endloop
  endfacet
  facet normal -0.587786 -0.809017 0
    outer loop
      vertex 2.87717 13.1421 3
      vertex 3.3 12.8349 5
      vertex 2.87717 13.1421 5
    endloop
  endfacet
  facet normal -0.587786 -0.809017 -0
    outer loop
      vertex 3.3 12.8349 5
      vertex 2.87717 13.1421 3
      vertex 3.3 12.8349 3
    endloop
  endfacet
  facet normal -0.866025 -0.5 0
    outer loop
      vertex 2.52746 13.5305 3
      vertex 2.26614 13.9832 5
      vertex 2.26614 13.9832 3
    endloop
  endfacet
  facet normal -0.866025 -0.5 0
    outer loop
      vertex 2.26614 13.9832 5
      vertex 2.52746 13.5305 3
      vertex 2.52746 13.5305 5
    endloop
  endfacet
  facet normal -0.951056 -0.309018 0
    outer loop
      vertex 2.26614 13.9832 3
      vertex 2.10463 14.4802 5
      vertex 2.10463 14.4802 3
    endloop
  endfacet
  facet normal -0.951056 -0.309018 0
    outer loop
      vertex 2.10463 14.4802 5
      vertex 2.26614 13.9832 3
      vertex 2.26614 13.9832 5
    endloop
  endfacet
  facet normal -0.743145 -0.669131 0
    outer loop
      vertex 2.87717 13.1421 3
      vertex 2.52746 13.5305 5
      vertex 2.52746 13.5305 3
    endloop
  endfacet
  facet normal -0.743145 -0.669131 0
    outer loop
      vertex 2.52746 13.5305 5
      vertex 2.87717 13.1421 3
      vertex 2.87717 13.1421 5
    endloop
  endfacet
  facet normal -0.406736 -0.913546 0
    outer loop
      vertex 3.3 12.8349 3
      vertex 3.77746 12.6224 5
      vertex 3.3 12.8349 5
    endloop
  endfacet
  facet normal -0.406736 -0.913546 -0
    outer loop
      vertex 3.77746 12.6224 5
      vertex 3.3 12.8349 3
      vertex 3.77746 12.6224 3
    endloop
  endfacet
  facet normal -0.207912 -0.978148 0
    outer loop
      vertex 3.77746 12.6224 3
      vertex 4.28868 12.5137 5
      vertex 3.77746 12.6224 5
    endloop
  endfacet
  facet normal -0.207912 -0.978148 -0
    outer loop
      vertex 4.28868 12.5137 5
      vertex 3.77746 12.6224 3
      vertex 4.28868 12.5137 3
    endloop
  endfacet
endsolid OpenSCAD_Model
